<?xml version="1.0" encoding="UTF-8"?>
<svg xmlns="http://www.w3.org/2000/svg" viewBox="0 0 282.84 51.35">
  <defs>
    <style>.cls-1{fill:#373737;}.cls-2{fill:#c1181a;}</style>
  </defs>
  <g id="Ebene_2" data-name="Ebene 2">
    <g id="Ebene_7" data-name="Ebene 7">
      <path class="cls-1" d="M.94,50.63a.66.66,0,0,1-.51-.21.74.74,0,0,1-.21-.59V16a.76.76,0,0,1,.21-.59.66.66,0,0,1,.51-.21h7.2a.74.74,0,0,1,.59.21.76.76,0,0,1,.21.59V49.83a.73.73,0,0,1-.8.8ZM.73,7.43a.67.67,0,0,1-.52-.21A.74.74,0,0,1,0,6.63V.87A.91.91,0,0,1,.23.22.61.61,0,0,1,.73,0H8.29a.81.81,0,0,1,.62.25.81.81,0,0,1,.25.62V6.63a.71.71,0,0,1-.22.57.91.91,0,0,1-.65.23Z"></path>
      <path class="cls-1" d="M38.32,50.63a.73.73,0,0,1-.8-.8V30.18a9.81,9.81,0,0,0-2.08-6.6,7.69,7.69,0,0,0-6.12-2.47,8.1,8.1,0,0,0-6.13,2.44,9.27,9.27,0,0,0-2.29,6.63V49.83a.74.74,0,0,1-.21.59.67.67,0,0,1-.52.21H12.54a.64.64,0,0,1-.51-.21.74.74,0,0,1-.22-.59V16A.8.8,0,0,1,12,15.4a.68.68,0,0,1,.52-.21H19.6a.73.73,0,0,1,.8.8v5.63l1.77-2.19a13.93,13.93,0,0,1,4.51-3.56,14.71,14.71,0,0,1,6.74-1.4,13.39,13.39,0,0,1,6.94,1.77A12.21,12.21,0,0,1,45,21.38a18.43,18.43,0,0,1,1.73,8.36V49.83a.71.71,0,0,1-.22.57.81.81,0,0,1-.58.23Z"></path>
      <path class="cls-1" d="M60.49,50.63a1.37,1.37,0,0,1-.92-.25,4,4,0,0,1-.71-1L45.36,16.05a.56.56,0,0,1-.07-.27.6.6,0,0,1,.58-.59h7a1,1,0,0,1,.68.19,1.92,1.92,0,0,1,.39.57l9.81,26.3L73.5,16a2.86,2.86,0,0,1,.5-.66c0-.05.17-.19.6-.19h7a.62.62,0,0,1,.59.59,1.72,1.72,0,0,1,0,.34L68.56,49.46a2.42,2.42,0,0,1-.62.9,1.41,1.41,0,0,1-1,.27Z"></path>
      <path class="cls-1" d="M98,51.35a21.62,21.62,0,0,1-9.56-1.88,13.13,13.13,0,0,1-5.74-5.25,17.63,17.63,0,0,1-2.2-8.11c0-.94-.07-2-.07-3.23s0-2.27.07-3.16a16.69,16.69,0,0,1,2.3-8.13,13.92,13.92,0,0,1,5.85-5.24A21.11,21.11,0,0,1,98,14.47a21,21,0,0,1,9.28,1.88,13.92,13.92,0,0,1,5.85,5.24,16.69,16.69,0,0,1,2.31,8.12c.09.94.14,2,.14,3.17s0,2.25-.14,3.17a17.68,17.68,0,0,1-2.21,8.17,13.16,13.16,0,0,1-5.73,5.25A21.5,21.5,0,0,1,98,51.35Zm0-31A7.53,7.53,0,0,0,91.85,23a11.41,11.41,0,0,0-2.21,7c0,.7-.07,1.69-.07,2.91s0,2.21.07,3a11.38,11.38,0,0,0,2.21,7A7.59,7.59,0,0,0,98,45.43a7.45,7.45,0,0,0,6.1-2.56,11.5,11.5,0,0,0,2.17-7c0-.72.08-1.71.08-2.92s0-2.19-.08-2.94a11.56,11.56,0,0,0-2.16-7A7.43,7.43,0,0,0,98,20.39Z"></path>
      <path class="cls-1" d="M141.9,50.63c-.74,0-.93-.14-.94-.15-.29-.22-.61-.48-1-.78l-14.31-16V49.83a.74.74,0,0,1-.21.59.66.66,0,0,1-.51.21h-7.06a.73.73,0,0,1-.8-.8V2.31a.76.76,0,0,1,.21-.59.74.74,0,0,1,.59-.21H125a.69.69,0,0,1,.51.21.76.76,0,0,1,.21.59V29.08l12.8-13c.32-.27.65-.55.95-.78a1.54,1.54,0,0,1,.86-.15h8.14a.49.49,0,0,1,.41.15.58.58,0,0,1,.17.44.7.7,0,0,1-.07.27.18.18,0,0,1-.09.09l-.11.07L134.12,30.92,150.47,49.6l.05,0c.25.23.31.37.31.41a.58.58,0,0,1-.58.58Z"></path>
      <path class="cls-1" d="M160.17,51.35a14.5,14.5,0,0,1-6.4-1.37,11.65,11.65,0,0,1-4.45-3.68A8.82,8.82,0,0,1,151.42,34a24.77,24.77,0,0,1,10.49-3.85l10.27-1.49V26.5a7.42,7.42,0,0,0-1.53-5c-1.06-1.23-2.84-1.86-5.3-1.86a7.9,7.9,0,0,0-4.36,1.1,7.48,7.48,0,0,0-2.57,2.82.82.82,0,0,1-.77.4h-6.84c-.36,0-.45-.1-.49-.14a.36.36,0,0,1-.1-.33v-.11A5.13,5.13,0,0,1,151,21a11.31,11.31,0,0,1,2.65-3,15.41,15.41,0,0,1,4.66-2.53,21.55,21.55,0,0,1,7.08-1,24,24,0,0,1,7.46,1,12.15,12.15,0,0,1,4.8,2.78,11.4,11.4,0,0,1,2.64,4.14,15,15,0,0,1,.88,5.16V49.83a.74.74,0,0,1-.21.59.76.76,0,0,1-.59.21h-7.06a.64.64,0,0,1-.51-.21.74.74,0,0,1-.21-.59V43.94l-1.83,2.66a10,10,0,0,1-2.29,2.32,11.84,11.84,0,0,1-3.5,1.76A15.44,15.44,0,0,1,160.17,51.35Zm4.3-17a14.81,14.81,0,0,0-6.11,2.12,4.78,4.78,0,0,0-2.22,4,4.61,4.61,0,0,0,1.06,3,6,6,0,0,0,2.62,1.82,9.42,9.42,0,0,0,3.23.56,9.94,9.94,0,0,0,4.72-1.12,8.2,8.2,0,0,0,3.37-3.52,12.42,12.42,0,0,0,1.19-5.72V33.11Z"></path>
      <path class="cls-1" d="M204.65,51.35a14,14,0,0,1-6.38-1.29,12.68,12.68,0,0,1-4.14-3.3l-1.78-2.23v5.3a.73.73,0,0,1-.8.8h-6.84a.76.76,0,0,1-.59-.21.74.74,0,0,1-.21-.59V2.31a.73.73,0,0,1,.8-.8h7.42a.69.69,0,0,1,.51.21.76.76,0,0,1,.21.59V20.63l1.75-2a12.77,12.77,0,0,1,4.15-3,13.65,13.65,0,0,1,5.9-1.17,14.86,14.86,0,0,1,6.11,1.17,12.75,12.75,0,0,1,4.37,3.27,15.37,15.37,0,0,1,2.8,5A22,22,0,0,1,219,30.48c0,.88.07,1.67.07,2.4s0,1.54-.07,2.43A23.67,23.67,0,0,1,217.85,42a15.27,15.27,0,0,1-2.76,5.07,11.57,11.57,0,0,1-4.31,3.19A15.68,15.68,0,0,1,204.65,51.35Zm-3.24-30.24a8.09,8.09,0,0,0-4.79,1.34,8.36,8.36,0,0,0-2.77,3.31,10.69,10.69,0,0,0-1,4.16c0,.86-.07,1.77-.07,2.7s0,1.87.07,2.79a15.09,15.09,0,0,0,.93,4.34,7.87,7.87,0,0,0,2.72,3.54,8.09,8.09,0,0,0,4.91,1.42,8,8,0,0,0,4.92-1.39,7.52,7.52,0,0,0,2.62-3.6,16.87,16.87,0,0,0,.88-4.51,35.15,35.15,0,0,0,0-4.59A16.94,16.94,0,0,0,209,26.1a7.56,7.56,0,0,0-2.62-3.6A8,8,0,0,0,201.41,21.11Z"></path>
      <path class="cls-1" d="M222.49,50.63a.72.72,0,0,1-.58-.21.74.74,0,0,1-.22-.59V2.31a.76.76,0,0,1,.22-.59.72.72,0,0,1,.58-.21h7.2a.7.7,0,0,1,.52.21.76.76,0,0,1,.21.59V49.83a.74.74,0,0,1-.21.59.67.67,0,0,1-.52.21Z"></path>
      <path class="cls-1" d="M250.2,51.35c-5.23,0-9.42-1.46-12.45-4.33s-4.66-7.14-4.84-12.7V31.26a20.76,20.76,0,0,1,2.39-9.06,14.22,14.22,0,0,1,5.86-5.72,19.11,19.11,0,0,1,9-2,18.22,18.22,0,0,1,9.59,2.34,14.87,14.87,0,0,1,5.74,6.35,21.5,21.5,0,0,1,2,9.39v1.66a.61.61,0,0,1-.22.49.8.8,0,0,1-.58.24H242.07v1.57a12.39,12.39,0,0,0,1,4.61,8.43,8.43,0,0,0,2.7,3.47,7.06,7.06,0,0,0,4.3,1.35,8.43,8.43,0,0,0,3.36-.59,7.4,7.4,0,0,0,2.19-1.42,9.63,9.63,0,0,0,1.21-1.32,2.93,2.93,0,0,1,.68-.62,2.4,2.4,0,0,1,.84-.09h7.49a.8.8,0,0,1,.54.16s.07.06.05.26a5.22,5.22,0,0,1-1,2.39,12.51,12.51,0,0,1-3,3.06,18.13,18.13,0,0,1-5.08,2.55A22,22,0,0,1,250.2,51.35Zm-.07-31.68a7.55,7.55,0,0,0-4.38,1.26A7.74,7.74,0,0,0,243,24.34a12.35,12.35,0,0,0-.91,4.9v1.14h16.11V29.24a12.21,12.21,0,0,0-.91-4.9,7.85,7.85,0,0,0-2.76-3.41A7.6,7.6,0,0,0,250.13,19.67Z"></path>
      <path class="cls-2" d="M274,50.63a.76.76,0,0,1-.59-.21.74.74,0,0,1-.21-.59V41.77a.74.74,0,0,1,.21-.59A.76.76,0,0,1,274,41H282a.73.73,0,0,1,.59.21.74.74,0,0,1,.21.59v8.06a.73.73,0,0,1-.8.8Z"></path>
    </g>
  </g>
</svg>
