<svg id="Layer_1" data-name="Layer 1" xmlns="http://www.w3.org/2000/svg" viewBox="0 0 643.46 167.18"><defs><style>.cls-1{fill:#c00808;}.cls-2{fill:#717e85;}.cls-3{fill:#e3000f;}.cls-4{fill:#630700;}.cls-5{fill:#9c0b00;}.cls-6{fill:#2c2c2b;}</style></defs><title>jarmedia_logo</title><path class="cls-1" d="M272.36,347.88a47,47,0,0,1-6-.37,1.54,1.54,0,0,1-1.4-1.59v-9.54a1.17,1.17,0,0,1,1-1.31h4.67c2.15,0,2.43-1,2.43-3.36V263.46a1.8,1.8,0,0,1,1.87-1.78h12.25a1.8,1.8,0,0,1,1.87,1.78V331.7c0,12.71-7.29,16.17-16.73,16.17" transform="translate(-70.87 -212.6)"/><path class="cls-1" d="M352.93,331.14H339.85a2,2,0,0,1-1.87-1.68l-3.37-15.33H315.45l-3.36,15.33a2,2,0,0,1-1.87,1.68H297.12a1.45,1.45,0,0,1-1.59-1.5,4,4,0,0,0,.09-.46l13.93-58c2.15-9,9.07-10.38,15.52-10.38s13.27,1.4,15.42,10.38l13.93,58a4,4,0,0,0,.09.46,1.45,1.45,0,0,1-1.59,1.5m-26.64-55.62c-.19-.93-.37-1.4-1.21-1.4s-1.12.47-1.31,1.4l-5.7,25.8H332Z" transform="translate(-70.87 -212.6)"/><path class="cls-1" d="M413.22,331.14h-14.3c-1,0-1.4-.93-1.87-1.87l-12.53-23.65-1,.09c-2,0-4.86-.19-6.64-.19v23.74a1.88,1.88,0,0,1-1.87,1.87H362.84a1.88,1.88,0,0,1-1.87-1.87V266.55c0-3.18,1.31-4,4.21-4.49a148.22,148.22,0,0,1,19-1.21c15.89,0,28.14,5.33,28.14,21.88v1.22c0,9.91-5.24,16-12.06,18.7L414.34,329a2.43,2.43,0,0,1,.28,1c0,.66-.37,1.12-1.4,1.12m-16.83-48.42c0-5.7-4.39-8.32-12.25-8.32-1.31,0-6.17.19-7.29.28v17.95c1,.09,5.61.19,6.64.19,9.82,0,12.9-2.53,12.9-8.88Z" transform="translate(-70.87 -212.6)"/><path class="cls-2" d="M506.69,331.14H494.35a1.71,1.71,0,0,1-1.5-1.87v-39c0-.65-.28-.75-.47-.75s-.47.19-.75.65l-8.41,15.43a3,3,0,0,1-2.8,1.59h-7.48a3,3,0,0,1-2.81-1.59l-8.41-15.43c-.28-.47-.47-.65-.75-.65s-.47.09-.47.75v39a1.71,1.71,0,0,1-1.5,1.87H446.68c-.75,0-1.59-.28-1.59-1.31v-65a3.09,3.09,0,0,1,3.37-3.18h8.79a4.36,4.36,0,0,1,4.11,2.52l14.3,26.64c.37.75.65,1.22,1,1.22s.66-.47,1-1.22L492,264.21a4.36,4.36,0,0,1,4.11-2.52h8.79a3.17,3.17,0,0,1,3.36,3.27v64.87c0,1-.84,1.31-1.59,1.31" transform="translate(-70.87 -212.6)"/><path class="cls-2" d="M561.93,309.08H532.11v.19c0,5.33,2.24,10.19,9.63,10.19,5.89,0,14.21-.47,17.95-.84H560c1,0,1.78.47,1.78,1.5v7.11c0,1.49-.37,2.15-2,2.52A71.42,71.42,0,0,1,540.62,332c-11.31,0-23.46-6-23.46-24v-6.54c0-15.05,8.79-24.59,23.65-24.59,15.33,0,23.09,10.47,23.09,24.59v5.42c0,1.4-.75,2.25-2,2.25m-12.81-9.72c0-6.92-3.18-10.38-8.41-10.38s-8.6,3.55-8.6,10.38v.38h17Z" transform="translate(-70.87 -212.6)"/><path class="cls-2" d="M613.53,329.55A87.87,87.87,0,0,1,593.62,332c-15.14,0-23.46-8.79-23.46-23.93v-7.29c0-14.68,7.66-23.93,23.46-23.93a65.33,65.33,0,0,1,7.67.65V261.31a1.87,1.87,0,0,1,1.87-1.87h11.31a2,2,0,0,1,2,1.87v65.53c0,1.5-.37,2.15-2.9,2.71m-12.25-39.73a70.26,70.26,0,0,0-7.67-.47c-6.64,0-8.32,4.86-8.32,11.41v7.29c0,6.64,1.68,11.5,8.32,11.5a52.07,52.07,0,0,0,7.67-.56Z" transform="translate(-70.87 -212.6)"/><path class="cls-2" d="M639.79,271.5H627.64a1.87,1.87,0,0,1-1.87-1.87v-8.7a1.87,1.87,0,0,1,1.87-1.87h12.15a1.88,1.88,0,0,1,1.87,1.87v8.7a1.88,1.88,0,0,1-1.87,1.87m-.37,59.64H628a1.88,1.88,0,0,1-1.87-1.87V279.45a1.87,1.87,0,0,1,1.87-1.87h11.4a1.87,1.87,0,0,1,1.87,1.87v49.83a1.88,1.88,0,0,1-1.87,1.87" transform="translate(-70.87 -212.6)"/><path class="cls-2" d="M690.45,331.14H680a1.88,1.88,0,0,1-1.87-1.87v-1.5a20.62,20.62,0,0,1-13,4.21c-8.13,0-16-3.92-16-16.08v-.84c0-10.94,7-15.8,23-15.8h5V295.9c0-5.33-2.62-6.45-7-6.45-6,0-12.62.38-15.52.66h-.46a1.52,1.52,0,0,1-1.68-1.68v-7.57a2.09,2.09,0,0,1,1.78-2.06,75.2,75.2,0,0,1,16.17-2c13.46,0,21.87,5.42,21.87,19.07v33.37a1.88,1.88,0,0,1-1.87,1.87m-13-22.9h-5.33c-6.55,0-8.23,2.24-8.23,6.82v.84c0,3.93,2,4.67,5.89,4.67a17.3,17.3,0,0,0,7.67-2.06Z" transform="translate(-70.87 -212.6)"/><path class="cls-1" d="M155,212.68a80.6,80.6,0,0,0-65.73,29.08L87.4,244l28.26,49.09L162,213Z" transform="translate(-70.87 -212.6)"/><path class="cls-3" d="M87.3,243.94l-3.78,5.93a81.12,81.12,0,0,0-7.68,71.46l1,2.78,56.64.07Z" transform="translate(-70.87 -212.6)"/><path class="cls-4" d="M78.66,330.29l3.24,6.24a81.12,81.12,0,0,0,58,42.39l2.92.5,28.38-49Z" transform="translate(-70.87 -212.6)"/><path class="cls-5" d="M189.29,299.25l-46.38,80.14,7,.31q1.77.08,3.54.08h0a80.49,80.49,0,0,0,62.19-29.15l1.89-2.28Z" transform="translate(-70.87 -212.6)"/><path class="cls-1" d="M229.22,257.36a81.13,81.13,0,0,0-58-42.39l-2.92-.5-28.38,49,92.59.1Z" transform="translate(-70.87 -212.6)"/><path class="cls-5" d="M233.39,266.39l-1-2.78-56.64-.06,46.21,80.23,3.78-5.93a81.11,81.11,0,0,0,7.68-71.46" transform="translate(-70.87 -212.6)"/><path class="cls-6" d="M300.15,378.08a15.86,15.86,0,0,0,6.14,1.2,12.5,12.5,0,0,0,8.51-3,13.61,13.61,0,0,0,4.36-8.21q.92-5.22-1.05-8T312,357.38a9.26,9.26,0,0,0-6.8,2.68l2.19-12.42h-3.88l-5.28,29.95Zm12.14-4a7.6,7.6,0,0,1-5.5,2.17,14.46,14.46,0,0,1-4.3-.62l1.91-10.81a7.51,7.51,0,0,1,2.67-3.22,7.29,7.29,0,0,1,4.14-1.16,3.78,3.78,0,0,1,3.53,2q1.12,2,.45,5.73A10.55,10.55,0,0,1,312.29,374.06Z" transform="translate(-70.87 -212.6)"/><path class="cls-6" d="M331.46,379.28a19.24,19.24,0,0,0,8.24-2l-.65-2.64a18.24,18.24,0,0,1-6.86,1.61,4.76,4.76,0,0,1-4.27-1.9q-1.27-1.9-.72-5.49H342l.12-.66q1.91-10.81-6.92-10.81a11.12,11.12,0,0,0-7.85,2.87,13.87,13.87,0,0,0-4,8.06q-.92,5.2,1.21,8.09t6.92,2.89Zm6.26-17.51a6.63,6.63,0,0,1,.71,4.19H327.87q1.88-5.53,6.79-5.53A3.45,3.45,0,0,1,337.72,361.77Z" transform="translate(-70.87 -212.6)"/><path class="cls-6" d="M364.89,379.2a15.39,15.39,0,0,0,7.28-1.77l-.61-2.64a14.46,14.46,0,0,1-6.05,1.44,4.69,4.69,0,0,1-4.23-2q-1.32-2-.63-5.9a10.84,10.84,0,0,1,2.67-5.9,6.57,6.57,0,0,1,4.85-2,4.88,4.88,0,0,1,4.38,2.39l2.94-1.94q-1.9-3.51-6.83-3.51a11.16,11.16,0,0,0-8,2.91,14,14,0,0,0-4,8q-.9,5.12,1.15,8t7,2.89Z" transform="translate(-70.87 -212.6)"/><path class="cls-6" d="M381.1,379l2.67-15.14q2.21-3,5.06-3a13.15,13.15,0,0,1,3.06.41l1.23-3.47a10.13,10.13,0,0,0-2.65-.41,8.3,8.3,0,0,0-6.44,3.3l.06-2.93H381L377.23,379Z" transform="translate(-70.87 -212.6)"/><path class="cls-6" d="M402.33,379.28a19.24,19.24,0,0,0,8.24-2l-.65-2.64a18.24,18.24,0,0,1-6.86,1.61,4.76,4.76,0,0,1-4.27-1.9q-1.27-1.9-.72-5.49h14.81l.12-.66q1.91-10.81-6.92-10.81a11.12,11.12,0,0,0-7.85,2.87,13.87,13.87,0,0,0-4,8.06q-.92,5.2,1.21,8.09t6.92,2.89Zm6.26-17.51a6.63,6.63,0,0,1,.71,4.19H398.74q1.88-5.53,6.79-5.53A3.45,3.45,0,0,1,408.6,361.77Z" transform="translate(-70.87 -212.6)"/><path class="cls-6" d="M421.77,379.45a11.33,11.33,0,0,0,7.45-3q.11,1.49.1,2.48h3l2.39-13.57q.73-4.17-1-6.08t-5.85-1.92a20.18,20.18,0,0,0-8.34,1.9l.68,2.68a17.94,17.94,0,0,1,6.54-1.53q2.76,0,3.66,1.11t.43,3.75l-.15.83h-3.14a15.33,15.33,0,0,0-8,1.86,7.15,7.15,0,0,0-3.6,5q-.55,3.12,1,4.81a6.27,6.27,0,0,0,4.78,1.69ZM427.33,369h2.89l-.8,4.54a9.87,9.87,0,0,1-3,2.08,8.14,8.14,0,0,1-3.35.76q-3.84,0-3.26-3.26.73-4.12,7.53-4.13Z" transform="translate(-70.87 -212.6)"/><path class="cls-6" d="M442.84,377.55a5,5,0,0,0,3.92,1.65,13.38,13.38,0,0,0,4.89-.95l-.18-2.72a11.41,11.41,0,0,1-3.15.58q-3.09,0-2.45-3.67l2.07-11.72h6.48l.52-3h-6.48l1.09-6.19h-2.89l-1.75,6.19h-4l-.52,3h3.71l-2.1,11.92Q441.37,375.9,442.84,377.55Z" transform="translate(-70.87 -212.6)"/><path class="cls-6" d="M464.82,353.33l.63-3.59h-3.8l-.63,3.59ZM460.31,379l3.74-21.2h-3.8L456.51,379Z" transform="translate(-70.87 -212.6)"/><path class="cls-6" d="M477.14,379l11.16-21.2h-3.75l-9.15,17.74-2.94-17.74h-4l3.77,21.2Z" transform="translate(-70.87 -212.6)"/><path class="cls-6" d="M497.29,379.28a19.24,19.24,0,0,0,8.24-2l-.65-2.64a18.24,18.24,0,0,1-6.86,1.61,4.76,4.76,0,0,1-4.27-1.9q-1.27-1.9-.72-5.49h14.81l.12-.66q1.91-10.81-6.92-10.81a11.12,11.12,0,0,0-7.85,2.87,13.87,13.87,0,0,0-4,8.06q-.92,5.2,1.21,8.09t6.92,2.89Zm6.26-17.51a6.63,6.63,0,0,1,.71,4.19H493.7q1.88-5.53,6.79-5.53A3.45,3.45,0,0,1,503.56,361.77Z" transform="translate(-70.87 -212.6)"/><path class="cls-6" d="M514.84,379l.73-4.13h-4.13l-.73,4.13Z" transform="translate(-70.87 -212.6)"/><path class="cls-6" d="M537.36,379.45a11.33,11.33,0,0,0,7.45-3q.11,1.49.1,2.48h3l2.39-13.57q.73-4.17-1-6.08t-5.85-1.92a20.18,20.18,0,0,0-8.34,1.9l.68,2.68a17.94,17.94,0,0,1,6.54-1.53q2.76,0,3.66,1.11t.43,3.75l-.15.83h-3.14a15.33,15.33,0,0,0-8,1.86,7.15,7.15,0,0,0-3.6,5q-.55,3.12,1,4.81a6.27,6.27,0,0,0,4.78,1.69ZM542.92,369h2.89l-.8,4.54a9.87,9.87,0,0,1-3,2.08,8.14,8.14,0,0,1-3.35.76q-3.84,0-3.26-3.26.73-4.12,7.53-4.13Z" transform="translate(-70.87 -212.6)"/><path class="cls-6" d="M558.78,379l2.68-15.18a8.43,8.43,0,0,1,6.78-3.34,3.28,3.28,0,0,1,2.91,1.13,5.07,5.07,0,0,1,.33,3.65L569,379h3.88l2.47-14q.65-3.67-.81-5.61t-4.83-1.94a11.37,11.37,0,0,0-8.06,3.34l.11-3h-3.18L554.9,379Z" transform="translate(-70.87 -212.6)"/><path class="cls-6" d="M594.47,376.31l.08,2.6h3.14l5.51-31.27h-3.88L597.5,358a17.32,17.32,0,0,0-4.39-.58,12.5,12.5,0,0,0-8.51,3,13.61,13.61,0,0,0-4.36,8.21q-.92,5.22,1.05,8t6.16,2.74a9.31,9.31,0,0,0,7-3Zm-7.36-13.72a7.6,7.6,0,0,1,5.5-2.17A14.61,14.61,0,0,1,597,361l-1.88,10.68a7.73,7.73,0,0,1-2.71,3.3,7.23,7.23,0,0,1-4.17,1.2,3.77,3.77,0,0,1-3.53-2q-1.12-2-.45-5.73A10.54,10.54,0,0,1,587.11,362.59Z" transform="translate(-70.87 -212.6)"/><path class="cls-6" d="M619.5,379l2.67-15.14q2.21-3,5.06-3a13.15,13.15,0,0,1,3.06.41l1.23-3.47a10.13,10.13,0,0,0-2.65-.41,8.3,8.3,0,0,0-6.44,3.3l.06-2.93h-3.14L615.62,379Z" transform="translate(-70.87 -212.6)"/><path class="cls-6" d="M640.73,379.28a19.24,19.24,0,0,0,8.24-2l-.65-2.64a18.24,18.24,0,0,1-6.86,1.61,4.76,4.76,0,0,1-4.27-1.9q-1.27-1.9-.72-5.49h14.81l.12-.66q1.91-10.81-6.92-10.81a11.12,11.12,0,0,0-7.85,2.87,13.87,13.87,0,0,0-4,8.06q-.92,5.2,1.21,8.09t6.92,2.89ZM647,361.77a6.63,6.63,0,0,1,.71,4.19H637.14q1.88-5.53,6.79-5.53A3.45,3.45,0,0,1,647,361.77Z" transform="translate(-70.87 -212.6)"/><path class="cls-6" d="M658.81,379l5.52-31.31h-3.8L655,379Z" transform="translate(-70.87 -212.6)"/><path class="cls-6" d="M671.47,379.45a11.33,11.33,0,0,0,7.45-3Q679,378,679,379h3l2.39-13.57q.73-4.17-1-6.08t-5.85-1.92a20.18,20.18,0,0,0-8.34,1.9l.68,2.68a17.94,17.94,0,0,1,6.54-1.53q2.76,0,3.66,1.11t.43,3.75l-.14.83h-3.14a15.33,15.33,0,0,0-8,1.86,7.15,7.15,0,0,0-3.6,5q-.55,3.12,1,4.81a6.27,6.27,0,0,0,4.78,1.69ZM677,369h2.89l-.8,4.54a9.87,9.87,0,0,1-3,2.08,8.14,8.14,0,0,1-3.35.76q-3.84,0-3.26-3.26Q670.22,369,677,369Z" transform="translate(-70.87 -212.6)"/><path class="cls-6" d="M690.21,379l7-8,4.24,8H706l-5.85-11,9-10.19H705L698.61,365l-3.84-7.22h-4.5L695.65,368,686,379Z" transform="translate(-70.87 -212.6)"/><path class="cls-6" d="M713.6,379l.73-4.13H710.2l-.73,4.13Z" transform="translate(-70.87 -212.6)"/></svg>